<mxfile host="65bd71144e">
    <diagram id="w3RBmg8Rn5PBKGlIHb5t" name="Page-1">
        <mxGraphModel dx="2447" dy="1028" grid="1" gridSize="10" guides="1" tooltips="1" connect="1" arrows="1" fold="1" page="1" pageScale="1" pageWidth="850" pageHeight="1100" math="0" shadow="0">
            <root>
                <mxCell id="0"/>
                <mxCell id="1" parent="0"/>
                <mxCell id="2" value="" style="whiteSpace=wrap;html=1;movable=0;resizable=0;rotatable=0;deletable=0;editable=0;locked=1;connectable=0;fillColor=#fad7ac;strokeColor=#b46504;" vertex="1" parent="1">
                    <mxGeometry x="-40" y="15" width="1980" height="690" as="geometry"/>
                </mxCell>
                <mxCell id="16" value="" style="whiteSpace=wrap;html=1;fillColor=#b1ddf0;strokeColor=#10739e;movable=0;resizable=0;rotatable=0;deletable=0;editable=0;locked=1;connectable=0;" vertex="1" parent="1">
                    <mxGeometry x="220" y="40" width="240" height="580" as="geometry"/>
                </mxCell>
                <mxCell id="17" value="user page" style="shape=parallelogram;perimeter=parallelogramPerimeter;whiteSpace=wrap;html=1;fixedSize=1;fillColor=#f8cecc;strokeColor=#b85450;movable=0;resizable=0;rotatable=0;deletable=0;editable=0;locked=1;connectable=0;" vertex="1" parent="1">
                    <mxGeometry x="250" y="425" width="190" height="60" as="geometry"/>
                </mxCell>
                <mxCell id="18" value="3. login page" style="shape=parallelogram;perimeter=parallelogramPerimeter;whiteSpace=wrap;html=1;fixedSize=1;fillColor=#d5e8d4;strokeColor=#82b366;movable=0;resizable=0;rotatable=0;deletable=0;editable=0;locked=1;connectable=0;" vertex="1" parent="1">
                    <mxGeometry x="250" y="330" width="190" height="60" as="geometry"/>
                </mxCell>
                <mxCell id="19" value="2.sign up page" style="shape=parallelogram;perimeter=parallelogramPerimeter;whiteSpace=wrap;html=1;fixedSize=1;fillColor=#fff2cc;strokeColor=#d6b656;movable=0;resizable=0;rotatable=0;deletable=0;editable=0;locked=1;connectable=0;" vertex="1" parent="1">
                    <mxGeometry x="250" y="235" width="180" height="60" as="geometry"/>
                </mxCell>
                <mxCell id="20" value="1. home page" style="shape=parallelogram;perimeter=parallelogramPerimeter;whiteSpace=wrap;html=1;fixedSize=1;size=20;fillColor=#f5f5f5;fontColor=#333333;strokeColor=#666666;movable=0;resizable=0;rotatable=0;deletable=0;editable=0;locked=1;connectable=0;" vertex="1" parent="1">
                    <mxGeometry x="240" y="145" width="200" height="60" as="geometry"/>
                </mxCell>
                <mxCell id="23" value="pages that are needed" style="shape=process;whiteSpace=wrap;html=1;backgroundOutline=1;fillColor=#dae8fc;strokeColor=#6c8ebf;movable=0;resizable=0;rotatable=0;deletable=0;editable=0;locked=1;connectable=0;" vertex="1" parent="1">
                    <mxGeometry x="250" y="60" width="180" height="60" as="geometry"/>
                </mxCell>
                <mxCell id="28" value="" style="whiteSpace=wrap;html=1;fillColor=#b0e3e6;strokeColor=#0e8088;movable=0;resizable=0;rotatable=0;deletable=0;editable=0;locked=1;connectable=0;" vertex="1" parent="1">
                    <mxGeometry x="530" y="40" width="230" height="570" as="geometry"/>
                </mxCell>
                <mxCell id="30" value="" style="rounded=1;whiteSpace=wrap;html=1;fillColor=#fff2cc;strokeColor=#d6b656;movable=0;resizable=0;rotatable=0;deletable=0;editable=0;locked=1;connectable=0;" vertex="1" parent="1">
                    <mxGeometry x="540" y="50" width="210" height="530" as="geometry"/>
                </mxCell>
                <mxCell id="31" value="&lt;h2&gt;Homepage&lt;/h2&gt;" style="shape=step;perimeter=stepPerimeter;whiteSpace=wrap;html=1;fixedSize=1;fillColor=#ffcc99;strokeColor=#36393d;" vertex="1" parent="1">
                    <mxGeometry x="550" y="85" width="190" height="65" as="geometry"/>
                </mxCell>
                <mxCell id="32" value="&lt;ul&gt;&lt;li style=&quot;text-align: left;&quot;&gt;&lt;font style=&quot;font-size: 13px;&quot;&gt;&lt;b&gt;About us&amp;nbsp;&lt;/b&gt;&lt;/font&gt;&lt;/li&gt;&lt;li style=&quot;text-align: justify;&quot;&gt;&lt;font style=&quot;font-size: 13px;&quot;&gt;&lt;b&gt;get started &amp;lt;btn&amp;gt;&lt;/b&gt;&lt;/font&gt;&lt;/li&gt;&lt;li style=&quot;text-align: justify;&quot;&gt;&lt;font style=&quot;font-size: 13px;&quot;&gt;&lt;b&gt;sign up &amp;lt;btn&amp;gt;&lt;/b&gt;&lt;/font&gt;&lt;/li&gt;&lt;li style=&quot;text-align: justify;&quot;&gt;&lt;font style=&quot;font-size: 13px;&quot;&gt;&lt;b&gt;login &amp;lt;btn&amp;gt;&lt;/b&gt;&lt;/font&gt;&lt;/li&gt;&lt;li style=&quot;text-align: justify;&quot;&gt;&lt;font style=&quot;font-size: 13px;&quot;&gt;&lt;b&gt;copyright&amp;nbsp;&lt;/b&gt;&lt;/font&gt;&lt;/li&gt;&lt;li style=&quot;text-align: justify;&quot;&gt;&lt;font style=&quot;font-size: 13px;&quot;&gt;&lt;b&gt;policies&lt;/b&gt;&lt;/font&gt;&lt;/li&gt;&lt;/ul&gt;" style="rounded=0;whiteSpace=wrap;html=1;fillColor=#dae8fc;strokeColor=#6c8ebf;movable=0;resizable=0;rotatable=0;deletable=0;editable=0;locked=1;connectable=0;" vertex="1" parent="1">
                    <mxGeometry x="550" y="165" width="190" height="385" as="geometry"/>
                </mxCell>
                <mxCell id="33" value="page features" style="rounded=1;whiteSpace=wrap;html=1;movable=0;resizable=0;rotatable=0;deletable=0;editable=0;locked=1;connectable=0;fillColor=#cdeb8b;strokeColor=#36393d;" vertex="1" parent="1">
                    <mxGeometry x="585" y="205" width="120" height="60" as="geometry"/>
                </mxCell>
                <mxCell id="39" style="edgeStyle=none;html=1;" edge="1" parent="1" source="34">
                    <mxGeometry relative="1" as="geometry">
                        <mxPoint x="230" y="322.5" as="targetPoint"/>
                    </mxGeometry>
                </mxCell>
                <mxCell id="34" value="&lt;h1&gt;ff compete&lt;/h1&gt;" style="rounded=1;whiteSpace=wrap;html=1;arcSize=20;rotation=-90;fontSize=24;fillColor=#f0a30a;fontColor=#000000;strokeColor=#BD7000;movable=0;resizable=0;rotatable=0;deletable=0;editable=0;locked=1;connectable=0;" vertex="1" parent="1">
                    <mxGeometry x="-186.87" y="288.75" width="517.5" height="72.5" as="geometry"/>
                </mxCell>
                <mxCell id="40" value="5. tournament listing page" style="shape=parallelogram;perimeter=parallelogramPerimeter;whiteSpace=wrap;html=1;fixedSize=1;fillColor=#e1d5e7;strokeColor=#9673a6;movable=0;resizable=0;rotatable=0;deletable=0;editable=0;locked=1;connectable=0;" vertex="1" parent="1">
                    <mxGeometry x="240" y="520" width="210" height="60" as="geometry"/>
                </mxCell>
                <mxCell id="41" value="" style="whiteSpace=wrap;html=1;movable=0;resizable=0;rotatable=0;deletable=0;editable=0;locked=1;connectable=0;fillColor=#cce5ff;strokeColor=#36393d;" vertex="1" parent="1">
                    <mxGeometry x="810" y="40" width="230" height="570" as="geometry"/>
                </mxCell>
                <mxCell id="42" value="" style="rounded=1;whiteSpace=wrap;html=1;movable=0;resizable=0;rotatable=0;deletable=0;editable=0;locked=1;connectable=0;fillColor=#ffcc99;strokeColor=#36393d;" vertex="1" parent="1">
                    <mxGeometry x="820" y="60" width="210" height="530" as="geometry"/>
                </mxCell>
                <mxCell id="43" value="&lt;h4&gt;&lt;font style=&quot;font-size: 19px;&quot;&gt;sign up page&amp;nbsp;&lt;/font&gt;&lt;/h4&gt;" style="rounded=1;whiteSpace=wrap;html=1;movable=0;resizable=0;rotatable=0;deletable=0;editable=0;locked=1;connectable=0;fillColor=#ffff88;strokeColor=#36393d;" vertex="1" parent="1">
                    <mxGeometry x="830" y="81.25" width="190" height="72.5" as="geometry"/>
                </mxCell>
                <mxCell id="61" value="&lt;ul&gt;&lt;li&gt;&lt;span style=&quot;font-size: 14.04px;&quot;&gt;&lt;b&gt;USERNAME&lt;/b&gt;&lt;/span&gt;&lt;/li&gt;&lt;li&gt;&lt;span style=&quot;font-size: 14.04px;&quot;&gt;&lt;b&gt;GMAIL&amp;nbsp;&lt;/b&gt;&lt;/span&gt;&lt;/li&gt;&lt;li&gt;&lt;span style=&quot;font-size: 14.04px;&quot;&gt;&lt;b&gt;VERIFY GMAIL &amp;lt;BTN&amp;gt;&lt;/b&gt;&lt;/span&gt;&lt;/li&gt;&lt;li&gt;&lt;span style=&quot;font-size: 14.04px;&quot;&gt;&lt;b&gt;OTP SYSTEM (FOR VERIFICATION&lt;/b&gt;&lt;/span&gt;&lt;b style=&quot;color: rgb(63, 63, 63); background-color: transparent; font-size: 14.04px;&quot;&gt;&amp;nbsp;&lt;/b&gt;&lt;/li&gt;&lt;li&gt;&lt;span style=&quot;font-size: 14.04px;&quot;&gt;&lt;b&gt;GAME ID&lt;/b&gt;&lt;/span&gt;&lt;/li&gt;&lt;li&gt;&lt;span style=&quot;font-size: 14.04px;&quot;&gt;&lt;b&gt;NAME&lt;/b&gt;&lt;/span&gt;&lt;/li&gt;&lt;li&gt;&lt;span style=&quot;font-size: 14.04px;&quot;&gt;&lt;b&gt;PHONE NO&amp;nbsp;&lt;/b&gt;&lt;/span&gt;&lt;/li&gt;&lt;li&gt;&lt;span style=&quot;font-size: 14.04px;&quot;&gt;&lt;b&gt;NO. VERIFICATION VIA OTP&lt;/b&gt;&lt;/span&gt;&lt;/li&gt;&lt;li&gt;&lt;b style=&quot;color: rgb(63, 63, 63); font-size: 14.04px; background-color: transparent;&quot;&gt;SET&amp;nbsp; PASSWORD&lt;/b&gt;&lt;/li&gt;&lt;li&gt;&lt;span style=&quot;font-size: 14.04px;&quot;&gt;&lt;b&gt;IF ALEREADY SIGNED UP / LOGIN&lt;/b&gt;&lt;/span&gt;&lt;/li&gt;&lt;li&gt;&lt;span style=&quot;font-size: 14.04px;&quot;&gt;&lt;b&gt;SIGN UP WITH GOOGLE&lt;/b&gt;&lt;/span&gt;&lt;/li&gt;&lt;/ul&gt;" style="shape=callout;whiteSpace=wrap;html=1;perimeter=calloutPerimeter;movable=1;resizable=1;rotatable=1;deletable=1;editable=1;locked=0;connectable=1;fillColor=#eeeeee;strokeColor=#36393d;align=left;" vertex="1" parent="1">
                    <mxGeometry x="830" y="175" width="190" height="385" as="geometry"/>
                </mxCell>
                <mxCell id="70" style="edgeStyle=none;html=1;fontFamily=Helvetica;fontSize=12;fontColor=default;" edge="1" parent="1" source="68">
                    <mxGeometry relative="1" as="geometry">
                        <mxPoint x="1560" y="330" as="targetPoint"/>
                    </mxGeometry>
                </mxCell>
                <mxCell id="64" value="" style="rounded=0;whiteSpace=wrap;html=1;strokeColor=#0e8088;align=center;verticalAlign=middle;fontFamily=Helvetica;fontSize=12;fontColor=default;fillColor=#b0e3e6;movable=0;resizable=0;rotatable=0;deletable=0;editable=0;locked=1;connectable=0;" vertex="1" parent="1">
                    <mxGeometry x="1120" y="45" width="240" height="570" as="geometry"/>
                </mxCell>
                <mxCell id="65" value="" style="rounded=1;whiteSpace=wrap;html=1;align=center;verticalAlign=middle;fontFamily=Helvetica;fontSize=12;fillColor=#cdeb8b;strokeColor=#36393d;" vertex="1" parent="1">
                    <mxGeometry x="1135" y="60" width="210" height="530" as="geometry"/>
                </mxCell>
                <mxCell id="66" value="&lt;ul&gt;&lt;li&gt;GMAIL LOGIN&lt;/li&gt;&lt;li&gt;PASSWORD&lt;/li&gt;&lt;/ul&gt;" style="shape=callout;whiteSpace=wrap;html=1;perimeter=calloutPerimeter;rounded=1;strokeColor=#b46504;align=left;verticalAlign=middle;fontFamily=Helvetica;fontSize=12;fillColor=#fad7ac;size=20;position=0.45;position2=0.45;" vertex="1" parent="1">
                    <mxGeometry x="1145" y="205" width="190" height="370" as="geometry"/>
                </mxCell>
                <mxCell id="67" value="&lt;h2&gt;&lt;font face=&quot;Comic Sans MS&quot;&gt;LOGIN PAGE&lt;/font&gt;&lt;/h2&gt;" style="ellipse;whiteSpace=wrap;html=1;rounded=1;strokeColor=#BD7000;align=center;verticalAlign=middle;fontFamily=Helvetica;fontSize=12;fillColor=#f0a30a;fontColor=#000000;" vertex="1" parent="1">
                    <mxGeometry x="1167.5" y="92.5" width="145" height="82.5" as="geometry"/>
                </mxCell>
                <mxCell id="71" value="" style="edgeStyle=none;html=1;fontFamily=Helvetica;fontSize=12;fontColor=default;" edge="1" parent="1" source="64" target="68">
                    <mxGeometry relative="1" as="geometry">
                        <mxPoint x="1560" y="330" as="targetPoint"/>
                        <mxPoint x="1360" y="330" as="sourcePoint"/>
                    </mxGeometry>
                </mxCell>
                <mxCell id="68" value="FORGOT&amp;nbsp; PASSWORD" style="ellipse;shape=doubleEllipse;whiteSpace=wrap;html=1;rounded=1;strokeColor=default;align=center;verticalAlign=middle;fontFamily=Helvetica;fontSize=12;fontColor=default;fillColor=default;" vertex="1" parent="1">
                    <mxGeometry x="1167.5" y="425" width="150" height="67.5" as="geometry"/>
                </mxCell>
            </root>
        </mxGraphModel>
    </diagram>
</mxfile>